<svg width="143" height="59" viewBox="0 0 143 59" fill="none" xmlns="http://www.w3.org/2000/svg">
<g clip-path="url(#clip0_2_2771)">
<path d="M0 7.89774V23.6108L9.39604 16.3872L0 7.89774Z" fill="white"/>
<path d="M0 50.1382L9.39604 41.6507L0 34.4326V50.1382Z" fill="white"/>
<path d="M17.6191 26.8654L41.2598 7.89738H27.4806L0 29.0225L17.6191 26.8654Z" fill="white"/>
<path d="M0 29.0224L27.4806 50.1394H41.2598L17.6191 31.1678L0 29.0224Z" fill="white"/>
<path d="M48.6411 9.71956H53.2872V47.9815H48.6411V9.71956ZM68.3187 9.71956H74.058L57.496 27.648L74.8779 47.9815H69.1386L51.8661 27.7573L68.3187 9.71956Z" fill="white"/>
<path d="M83.647 22.8379V47.9815H79.2742V22.8379H83.647ZM91.2447 27.648C90.6617 27.2107 90.1333 26.901 89.6596 26.7188C89.1858 26.5002 88.5846 26.3908 87.8558 26.3908C86.7626 26.3908 85.9062 26.6641 85.2868 27.2107C84.6673 27.7573 84.23 28.5044 83.9749 29.4518C83.7563 30.3992 83.647 31.4742 83.647 32.6767H81.6792C81.6792 30.6725 82.0254 28.9052 82.7178 27.3747C83.4465 25.8078 84.3758 24.5688 85.5054 23.6578C86.635 22.7468 87.7829 22.2913 88.949 22.2913C89.86 22.2913 90.6981 22.4189 91.4633 22.674C92.265 22.8926 92.9938 23.3481 93.6497 24.0405L91.2447 27.648Z" fill="white"/>
<path d="M98.0101 12.4526C98.0101 11.6144 98.3017 10.9039 98.8847 10.3208C99.5042 9.73778 100.215 9.44626 101.016 9.44626C101.855 9.44626 102.565 9.73778 103.148 10.3208C103.731 10.9039 104.023 11.6144 104.023 12.4526C104.023 13.2542 103.731 13.9648 103.148 14.5843C102.565 15.1673 101.855 15.4589 101.016 15.4589C100.215 15.4589 99.5042 15.1673 98.8847 14.5843C98.3017 13.9648 98.0101 13.2542 98.0101 12.4526ZM98.83 22.8379H103.203V47.9815H98.83V22.8379Z" fill="white"/>
<path d="M113.247 40.2745C113.758 41.0397 114.341 41.7503 114.997 42.4062C115.652 43.0621 116.4 43.5905 117.238 43.9913C118.112 44.3557 119.06 44.5379 120.08 44.5379C121.319 44.5379 122.285 44.2646 122.977 43.718C123.706 43.135 124.07 42.3515 124.07 41.3677C124.07 40.4931 123.779 39.7643 123.196 39.1813C122.649 38.5618 121.938 38.0516 121.064 37.6508C120.189 37.2135 119.26 36.8127 118.276 36.4483C117.183 36.011 116.072 35.5008 114.942 34.9178C113.849 34.2983 112.919 33.5149 112.154 32.5674C111.425 31.5835 111.061 30.3628 111.061 28.9052C111.061 27.4112 111.444 26.1722 112.209 25.1883C113.011 24.2044 114.031 23.4756 115.27 23.0019C116.545 22.5282 117.857 22.2913 119.205 22.2913C120.554 22.2913 121.811 22.51 122.977 22.9473C124.179 23.3845 125.236 23.9676 126.147 24.6964C127.058 25.4252 127.769 26.2633 128.279 27.2107L124.781 29.4518C124.088 28.5044 123.214 27.7209 122.157 27.1014C121.137 26.4819 119.971 26.1722 118.659 26.1722C117.748 26.1722 116.964 26.3726 116.308 26.7735C115.652 27.1743 115.325 27.7938 115.325 28.6319C115.325 29.2878 115.58 29.8709 116.09 30.381C116.6 30.8912 117.256 31.3467 118.058 31.7475C118.859 32.1484 119.697 32.531 120.572 32.8954C122.029 33.4784 123.36 34.1161 124.562 34.8085C125.765 35.4644 126.712 36.2661 127.404 37.2135C128.133 38.1609 128.498 39.3817 128.498 40.8757C128.498 43.0621 127.696 44.8841 126.093 46.3417C124.526 47.7993 122.449 48.5281 119.861 48.5281C118.185 48.5281 116.673 48.2366 115.325 47.6536C113.976 47.0341 112.828 46.2506 111.881 45.3032C110.97 44.3557 110.278 43.3901 109.804 42.4062L113.247 40.2745Z" fill="white"/>
<path d="M130.428 22.8379H143V26.9374H130.428V22.8379ZM134.528 14.0924H138.9V47.9815H134.528V14.0924Z" fill="white"/>
</g>
<defs>
<clipPath id="clip0_2_2771">
<rect width="143" height="58.1026" fill="white"/>
</clipPath>
</defs>
</svg>
